<?xml version="1.0" encoding="UTF-8"?>
<svg xmlns="http://www.w3.org/2000/svg" viewBox="0 0 1479.78 143.48">
  <defs>
    <style>
      .cls-1 {
        fill: #ed6d11;
      }

      .cls-1, .cls-2 {
        stroke-width: 0px;
      }

      .cls-2 {
        fill: #2b3d91;
      }
    </style>
  </defs>
  <g id="Warstwa_2" data-name="Warstwa 2">
    <polygon class="cls-1" points="29.6 126.74 0 126.74 59.19 10.07 86.54 10.07 29.6 126.74"/>
    <polygon class="cls-1" points="88.11 126.74 58.51 126.74 117.7 10.07 145.05 10.07 88.11 126.74"/>
    <polygon class="cls-1" points="143.29 126.74 113.69 126.74 172.89 10.07 200.23 10.07 143.29 126.74"/>
  </g>
  <g id="Warstwa_3" data-name="Warstwa 3">
    <g>
      <path class="cls-2" d="M247.37,12.16h24.53l23.11,112.49h-22.68l-4.71-23.95h-39.79l-11.27,23.95h-24.39L247.37,12.16ZM263.91,81.1l-7.56-38.89h-1.14l-18.26,38.89h26.96Z"/>
      <path class="cls-2" d="M306.7,81.58l9.84-69.42h21.68l-9.41,66.53c-3,20.89,3.85,25.87,18.97,25.87s23.1-4.98,26.1-25.87l9.41-66.53h21.68l-10.13,72c-3.71,25.39-15.97,42.59-49.06,42.59-30.38,0-43.07-17.2-39.08-45.16Z"/>
      <path class="cls-2" d="M443.05,33.69h-32.8l3-21.53h87l-3,21.53h-32.52l-12.84,90.96h-21.68l12.84-90.96Z"/>
      <path class="cls-2" d="M591.81,64.87l-.86,6.91c-5.42,38.57-27.24,54.96-55.62,54.96-25.39,0-45.5-15.75-39.93-54.96l.86-6.43c5.42-38.57,27.1-55.28,55.48-55.28,25.39,0,45.64,15.59,40.08,54.8ZM538.47,105.04c17.11,0,26.24-9.48,29.09-29.57l2-14.14c2.85-20.09-3.71-29.57-20.82-29.57s-26.24,9.48-29.1,29.57l-2.14,14.14c-2.85,20.09,3.71,29.57,20.97,29.57Z"/>
      <path class="cls-2" d="M651.99,79.81l-20.39-3.54c-18.4-3.05-25.24-16.39-23.39-31.98l.57-4.18c2.28-19.28,16.97-30.05,42.93-30.05,27.95,0,39.65,11.73,37.65,37.12h-20.96l.14-2.73c.71-9.16-4.42-14.14-17.54-14.14-14.26,0-20.11,4.5-20.97,11.09l-.43,2.41c-1,6.91,2.28,10.12,10.7,11.73l21.82,3.7c18.54,3.05,26.24,14.46,23.96,30.69l-.71,5.46c-2.99,19.93-16.54,31.34-43.64,31.34-30.09,0-42.93-13.18-40.93-39.37h21.39l-.14,2.73c-.86,11.57,5.99,16.07,20.39,16.07s20.25-3.86,21.39-11.41l.43-2.41c.86-7.07-2.14-10.93-12.27-12.54Z"/>
      <path class="cls-2" d="M730.15,33.69h-32.8l3-21.53h87l-2.99,21.53h-32.52l-12.84,90.96h-21.68l12.84-90.96Z"/>
      <path class="cls-2" d="M878.91,64.87l-.86,6.91c-5.42,38.57-27.24,54.96-55.62,54.96-25.39,0-45.5-15.75-39.93-54.96l.86-6.43c5.42-38.57,27.1-55.28,55.48-55.28,25.39,0,45.64,15.59,40.08,54.8ZM825.57,105.04c17.11,0,26.24-9.48,29.09-29.57l2-14.14c2.85-20.09-3.71-29.57-20.82-29.57s-26.24,9.48-29.1,29.57l-2.14,14.14c-2.85,20.09,3.71,29.57,20.97,29.57Z"/>
      <path class="cls-2" d="M902.59,12.16h51.63c17.97,0,33.8,7.07,30.66,29.41l-1,7.39c-2,13.18-9.13,21.21-21.11,22.82v1.29c9.7,1.29,15.12,6.27,13.26,19.61l-1.43,9.64c-.86,6.27-2,14.3-1.57,22.34h-21.82c-.43-8.04.71-15.11,1.43-20.41l.86-6.75c1.43-9.48-1-12.7-9.27-12.7h-30.09l-5.56,39.85h-21.68l15.69-112.49ZM947.37,63.42c8.13,0,12.27-4.66,13.26-11.73l1-6.43c1-7.07-1.85-11.57-9.98-11.57h-30.24l-4.14,29.73h30.09Z"/>
      <path class="cls-2" d="M1063.75,12.16h24.53l-46.92,70.87-5.7,41.62h-21.68l5.7-41.62-28.38-70.87h23.96l17.83,46.93h1.14l29.52-46.93Z"/>
      <path class="cls-2" d="M1128.93,31.28c-10.7,0-17.83,4.34-19.82,15.59l-.57,2.89h-20.96c4.28-27.8,21.11-39.69,45.5-39.69s35.09,12.05,32.38,31.5l-.43,2.73c-2,14.62-9.98,23.78-23.25,34.23l-29.24,23.46v1.13h45.78l-3,21.53h-79.3l2.85-20.25,47.64-37.93c11.12-9,15.26-13.5,16.26-20.73l.43-2.89c1-7.55-3.57-11.57-14.26-11.57Z"/>
      <path class="cls-2" d="M1225.48,104.24h-53.34l2.57-18.16,61.19-73.92h24.25l-10.13,72.48h14.69l-2.85,19.61h-14.55l-2.85,20.41h-21.82l2.85-20.41ZM1228.34,84.63l5.99-42.91h-1.14l-33.94,41.62-.14,1.29h29.24Z"/>
      <path class="cls-2" d="M1273.55,99.58h22.25l-3.57,25.07h-22.25l3.57-25.07Z"/>
      <path class="cls-2" d="M1321.04,12.16h48.35c21.25,0,34.8,10.93,31.66,33.1l-1.28,8.68c-3.14,22.18-17.83,33.11-39.22,33.11h-28.24l-5.28,37.6h-21.68l15.69-112.49ZM1362.83,65.67c8.7,0,12.98-4.98,14.26-13.18l.86-5.79c1.43-8.2-1.85-13.02-10.55-13.02h-27.53l-4.56,31.98h27.53Z"/>
      <path class="cls-2" d="M1420.73,12.16h21.68l-12.69,90.96h50.06l-2.85,21.53h-71.88l15.69-112.49Z"/>
    </g>
  </g>
</svg>